<svg xmlns="http://www.w3.org/2000/svg" viewBox="0 0 479.23 211.84"><defs><style>.cls-1,.cls-5{fill:none;}.cls-1,.cls-2{stroke:#5f4b66;}.cls-1,.cls-2,.cls-3,.cls-4,.cls-5{stroke-miterlimit:10;}.cls-1{stroke-width:0.5px;}.cls-2{fill:#5f4b66;}.cls-3{fill:#e71d73;stroke:#e71d73;}.cls-4{fill:#36a9e1;}.cls-4,.cls-5{stroke:#36a9e1;}.cls-5{stroke-width:4px;}</style></defs><title>simulator</title><g id="Layer_2" data-name="Layer 2"><g id="Layer_1-2" data-name="Layer 1"><path class="cls-1" d="M30.14,148.41l38.8-8.63"/><path id="ygc194_0" data-name="ygc194 0" class="cls-2" d="M69.13,142.3l1.9-3-3-1.9Z"/><path class="cls-1" d="M121.22,128.47,166.3,119"/><path class="cls-2" d="M166.47,121.55l1.93-3-3-1.94Z"/><path class="cls-1" d="M193.4,127.24l34,45.46"/><path class="cls-2" d="M225.2,173.91l3.5.51.5-3.5Z"/><path class="cls-1" d="M199.35,116.56,226.57,119"/><path class="cls-2" d="M226,121.44l2.71-2.27-2.27-2.71Z"/><path class="cls-1" d="M195.94,105.64l32.7-27.19"/><path class="cls-2" d="M230,80.6l.33-3.52-3.52-.33Z"/><path class="cls-1" d="M185.77,100.3l4.47-49.06"/><path class="cls-2" d="M192.7,51.82l-2.26-2.72-2.72,2.27Z"/><path class="cls-1" d="M251,179.17l23.29-15.59"/><path class="cls-2" d="M275.35,165.86l.69-3.47-3.47-.69Z"/><path class="cls-1" d="M258.87,114.91,299.25,98.3"/><path class="cls-2" d="M299.87,100.75l1.37-3.26L298,96.13Z"/><path class="cls-1" d="M244.4,105.63l-.81-20.52"/><path class="cls-2" d="M246.1,85.36,243.51,83l-2.4,2.6Z"/><path class="cls-1" d="M206.6,29.72l49.14-10.39"/><path class="cls-2" d="M255.91,21.85l1.93-3-3-1.93Z"/><path class="cls-1" d="M281.18,28.58l26.13,46.56"/><path class="cls-2" d="M305,76.05l3.41,1,.95-3.41Z"/><path class="cls-1" d="M257.08,71.39l41.74,14"/><path class="cls-2" d="M297.69,87.64l3.17-1.57-1.58-3.17Z"/><path class="cls-1" d="M328.29,82.18l34.76-26.5"/><path class="cls-2" d="M364.29,57.89l.47-3.51-3.5-.47Z"/><path class="cls-1" d="M330.41,96.53l41.94,15.72"/><path class="cls-2" d="M371.15,114.47l3.21-1.47-1.46-3.22Z"/><path class="cls-1" d="M319.83,105.86,332,157.11"/><path class="cls-2" d="M329.49,157.35l3,1.85,1.85-3Z"/><path class="cls-1" d="M253.49,187.11l56.61-1.51"/><path class="cls-2" d="M309.81,188.11l2.43-2.57-2.56-2.43Z"/><path class="cls-1" d="M353.87,165.06l24.49-31.68"/><path class="cls-2" d="M380.13,135.19l-.45-3.51-3.51.45Z"/><path class="cls-1" d="M387,63.38l1.82,36.88"/><path class="cls-2" d="M386.25,100l2.62,2.38,2.38-2.62Z"/><path class="cls-1" d="M404.33,121.94l41.33,9"/><path class="cls-2" d="M444.78,133.34l3-1.91-1.91-3Z"/><path class="cls-1" d="M295.57,139.52,309,108.26"/><path class="cls-2" d="M311.19,109.57l-1.3-3.28-3.29,1.3Z"/><circle class="cls-3" cx="15.5" cy="151.67" r="15"/><circle class="cls-4" cx="184.41" cy="115.24" r="15"/><circle class="cls-4" cx="238.5" cy="187.51" r="15"/><circle class="cls-4" cx="245" cy="120.62" r="15"/><circle class="cls-4" cx="191.92" cy="32.82" r="15"/><circle class="cls-4" cx="289.63" cy="153.3" r="15"/><circle class="cls-4" cx="242.86" cy="66.62" r="15"/><circle class="cls-4" cx="316.36" cy="91.27" r="15"/><circle class="cls-4" cx="273.84" cy="15.5" r="15"/><circle class="cls-4" cx="389.68" cy="118.74" r="15"/><circle class="cls-3" cx="463.73" cy="134.92" r="15"/><circle class="cls-5" cx="338.59" cy="184.84" r="25"/><circle class="cls-5" cx="385.72" cy="38.41" r="25"/><circle class="cls-5" cx="96.76" cy="133.6" r="25"/></g></g></svg>