<svg xmlns="http://www.w3.org/2000/svg" viewBox="0 0 479.49 213.19"><defs><style>.cls-1,.cls-5{fill:none;}.cls-1,.cls-2{stroke:#5f4b66;}.cls-1,.cls-2,.cls-3,.cls-4,.cls-5{stroke-miterlimit:10;}.cls-1{stroke-width:0.5px;}.cls-2{fill:#5f4b66;}.cls-3{fill:#e71d73;stroke:#e71d73;}.cls-4{fill:#36a9e1;}.cls-4,.cls-5{stroke:#36a9e1;}.cls-5{stroke-width:4px;}</style></defs><title>Asset 1</title><g id="Layer_2" data-name="Layer 2"><g id="Layer_1-2" data-name="Layer 1"><path class="cls-1" d="M30.21,143.17l39-7.79"/><path id="ygc210_0" data-name="ygc210 0" class="cls-2" d="M69.32,137.9l2-2.94-2.94-2Z"/><path class="cls-1" d="M121.7,125.18,167,116.71"/><path class="cls-2" d="M167.08,119.23l2-2.92-2.91-2Z"/><path class="cls-1" d="M193.88,125.5l33,46.17"/><path class="cls-2" d="M224.68,172.84l3.48.58.58-3.49Z"/><path class="cls-1" d="M200.06,115l27.16,3"/><path class="cls-2" d="M226.59,120.39l2.76-2.21-2.21-2.76Z"/><path class="cls-1" d="M196.88,104l33.27-26.49"/><path class="cls-2" d="M231.43,79.65l.4-3.52-3.51-.4Z"/><path class="cls-1" d="M186.83,98.4l5.52-48.95"/><path class="cls-2" d="M194.79,50.08l-2.2-2.76-2.76,2.2Z"/><path class="cls-1" d="M250.32,178.64l23.62-15.08"/><path class="cls-2" d="M275,165.86l.76-3.46-3.45-.76Z"/><path class="cls-1" d="M259.6,114.57l40.73-15.74"/><path class="cls-2" d="M300.9,101.29l1.43-3.23-3.23-1.44Z"/><path class="cls-1" d="M245.34,105,245,84.44"/><path class="cls-2" d="M247.47,84.75l-2.55-2.45-2.45,2.54Z"/><path class="cls-1" d="M209.16,28.28l49.35-9.34"/><path class="cls-2" d="M258.63,21.46l2-2.92-2.92-2Z"/><path class="cls-1" d="M283.75,28.74l25.13,47.1"/><path class="cls-2" d="M306.5,76.7l3.39,1,1-3.38Z"/><path class="cls-1" d="M258.74,71,300.17,85.9"/><path class="cls-2" d="M299,88.14l3.2-1.51-1.5-3.2Z"/><path class="cls-1" d="M329.7,83.32,365,57.58"/><path class="cls-2" d="M366.21,59.81l.55-3.49-3.49-.55Z"/><path class="cls-1" d="M331.51,97.72l41.6,16.61"/><path class="cls-2" d="M371.86,116.52l3.25-1.39-1.4-3.25Z"/><path class="cls-1" d="M320.74,106.82l11.07,51.5"/><path class="cls-2" d="M329.29,158.5l3,1.92,1.92-3Z"/><path class="cls-1" d="M252.68,186.64l56.62-.3"/><path class="cls-2" d="M309,188.84l2.49-2.51-2.51-2.49Z"/><path class="cls-1" d="M353.51,166.74l25.16-31.16"/><path class="cls-2" d="M380.4,137.43l-.38-3.52-3.51.38Z"/><path class="cls-1" d="M388.75,65.78l1,36.92"/><path class="cls-2" d="M387.27,102.41l2.57,2.43,2.43-2.56Z"/><path class="cls-1" d="M404.88,124.71,446,134.62"/><path class="cls-2" d="M445.07,137l3-1.84-1.84-3Z"/><path class="cls-1" d="M295.76,140l14.14-31"/><path class="cls-2" d="M312,110.35,310.79,107l-3.31,1.23Z"/><circle class="cls-3" cx="15.5" cy="146.11" r="15"/><circle class="cls-4" cx="185.15" cy="113.3" r="15"/><circle class="cls-4" cx="237.68" cy="186.71" r="15"/><circle class="cls-4" cx="245.61" cy="119.98" r="15"/><circle class="cls-4" cx="194.42" cy="31.06" r="15"/><circle class="cls-4" cx="289.53" cy="153.6" r="15"/><circle class="cls-4" cx="244.62" cy="65.95" r="15"/><circle class="cls-4" cx="317.58" cy="92.16" r="15"/><circle class="cls-4" cx="276.69" cy="15.5" r="15"/><circle class="cls-4" cx="390.3" cy="121.19" r="15"/><circle class="cls-3" cx="463.99" cy="138.95" r="15"/><circle class="cls-5" cx="337.8" cy="186.19" r="25"/><circle class="cls-5" cx="388.06" cy="40.79" r="25"/><circle class="cls-5" cx="97.12" cy="129.79" r="25"/></g></g></svg>